# xmcd CD database file
#
# Track frame offsets:
#	150
#	39995
#	61077
#	97647
#	121687
#	149752
#	166690
#	193477
#	239840
#	261167
#
# Disc length: 3885 seconds
#
# Revision: 6
# Processed by: cddbd v1.4PL0 Copyright (c) Steve Scherf et al.
# Submitted via: CDex 1.50Beta7
#
DISCID=870f2b0a
DTITLE=Tribute to ELP - Encores Legends and Paradox
DYEAR=1999
DGENRE=Progressive Rock
TTITLE0=Karn Evil 9 (1st Impression)
TTITLE1=Bitches Crystal
TTITLE2=Toccata
TTITLE3=Knife Edge
TTITLE4=A Time And A Place
TTITLE5=Hoedown
TTITLE6=The Sheriff
TTITLE7=The Endless Enigma
TTITLE8=The Barbarian
TTITLE9=Tarkus
EXTD=YEAR: 1999
EXTT0=
EXTT1=
EXTT2=
EXTT3=
EXTT4=
EXTT5=
EXTT6=
EXTT7=
EXTT8=
EXTT9=
PLAYORDER=
